<svg width="344" height="294" viewBox="0 0 344 294" fill="none" xmlns="http://www.w3.org/2000/svg">
<path fill-rule="evenodd" clip-rule="evenodd" d="M221.602 103.745L171.962 0L122.271 103.745L171.962 156.722L221.602 103.745ZM92.2397 189L56 59.7622L171.937 178.795L171.935 178.795C140.607 178.795 112.328 182.711 92.2397 189ZM251.634 189L287.874 59.7626L183.422 167.003L194.853 179.51C216.936 180.909 236.584 184.288 251.634 189Z" fill="#6E60DF"/>
<path d="M23.0805 246.098H35.8916V280H45.9427V246.098H58.7332V237.818H23.0805V246.098ZM75.0224 280H85.2177V263.049H101.839V280H112.014V237.818H101.839V254.749H85.2177V237.818H75.0224V280ZM129.719 280H139.914V265.562H145.146L152.849 280H163.971L155.218 263.935C159.852 261.834 162.529 257.694 162.529 251.865C162.529 243.194 156.618 237.818 147.144 237.818H129.719V280ZM139.914 257.529V246.036H144.94C149.512 246.036 151.963 247.952 151.963 251.865C151.963 255.778 149.512 257.529 144.94 257.529H139.914ZM219.245 258.909C219.245 244.965 210.429 237.241 199.101 237.241C187.732 237.241 178.978 244.965 178.978 258.909C178.978 272.791 187.732 280.577 199.101 280.577C210.429 280.577 219.245 272.853 219.245 258.909ZM208.823 258.909C208.823 267.168 205.198 271.638 199.101 271.638C193.025 271.638 189.38 267.168 189.38 258.909C189.38 250.65 193.025 246.18 199.101 246.18C205.198 246.18 208.823 250.65 208.823 258.909ZM272.407 237.818H262.232V262.122H261.882L245.281 237.818H236.507V280H246.702V255.655H246.97L263.756 280H272.407V237.818ZM290.128 280H319.54V271.72H300.323V263.049H318.036V254.749H300.323V246.098H319.54V237.818H290.128V280Z" fill="#353D42"/>
</svg>
